<?xml version="1.0" standalone="no"?>
<!DOCTYPE svg PUBLIC "-//W3C//DTD SVG 20010904//EN"
 "http://www.w3.org/TR/2001/REC-SVG-20010904/DTD/svg10.dtd">
<svg version="1.0" xmlns="http://www.w3.org/2000/svg"
 width="150.000000pt" height="150.000000pt" viewBox="0 0 150.000000 150.000000"
 preserveAspectRatio="xMidYMid meet">

<g transform="translate(0.000000,150.000000) scale(0.100000,-0.100000)"
fill="#000000" stroke="none">
<path d="M950 1415 c0 -8 5 -15 10 -15 6 0 10 7 10 15 0 8 -4 15 -10 15 -5 0
-10 -7 -10 -15z"/>
<path d="M1084 1315 c-4 -9 -2 -21 4 -27 15 -15 44 -1 40 19 -4 23 -36 29 -44
8z"/>
<path d="M1050 1160 c-11 -11 -20 -29 -20 -40 0 -27 35 -60 63 -60 31 0 57 29
57 63 0 53 -61 76 -100 37z m80 -20 c8 -14 8 -26 0 -40 -19 -35 -80 -20 -80
20 0 40 61 55 80 20z"/>
<path d="M495 1157 c-113 -38 -203 -113 -253 -214 -84 -165 -54 -351 77 -482
99 -99 234 -144 361 -121 64 12 149 48 183 78 17 15 30 4 221 -193 189 -195
226 -225 226 -182 0 7 -89 102 -199 211 l-199 199 38 50 c88 116 106 295 43
430 -41 87 -113 159 -201 200 -58 27 -79 32 -162 34 -59 2 -110 -2 -135 -10z
m278 -55 c78 -39 158 -120 195 -199 23 -50 27 -71 27 -148 0 -80 -3 -97 -31
-155 -41 -86 -108 -153 -192 -193 -59 -28 -78 -32 -152 -32 -59 0 -100 6 -136
19 -212 79 -311 317 -215 521 67 144 205 228 363 222 62 -3 89 -10 141 -35z"/>
</g>
</svg>
