<?xml version="1.0" standalone="no"?>
<!DOCTYPE svg PUBLIC "-//W3C//DTD SVG 20010904//EN"
 "http://www.w3.org/TR/2001/REC-SVG-20010904/DTD/svg10.dtd">
<svg version="1.0" xmlns="http://www.w3.org/2000/svg"
 width="150.000000pt" height="150.000000pt" viewBox="0 0 150.000000 150.000000"
 preserveAspectRatio="xMidYMid meet">

<g transform="translate(0.000000,150.000000) scale(0.100000,-0.100000)"
fill="#000000" stroke="none">
<path d="M1065 1314 c-95 -24 -119 -39 -217 -130 -55 -52 -103 -94 -107 -94
-4 0 -38 32 -76 71 -93 94 -163 129 -261 129 -104 0 -158 -22 -230 -94 -45
-45 -65 -75 -78 -114 -23 -67 -23 -156 -1 -224 16 -49 43 -79 328 -365 301
-303 313 -313 350 -313 29 0 46 7 68 29 16 16 29 38 29 49 0 14 10 24 34 32
40 13 62 35 71 72 5 17 16 28 33 33 37 9 59 31 72 71 8 24 18 34 32 34 26 0
78 53 78 80 0 14 36 60 95 123 124 132 150 184 149 292 0 60 -6 92 -23 131
-27 63 -101 136 -163 164 -46 20 -146 33 -183 24z m-547 -84 c42 -19 192 -153
192 -172 0 -5 -54 -65 -120 -133 -101 -103 -120 -128 -120 -154 0 -42 31 -71
76 -71 33 0 47 10 133 95 l97 95 55 0 55 0 137 -138 c75 -76 137 -142 137
-146 0 -12 -22 -51 -34 -58 -33 -22 -61 -6 -161 92 -55 55 -107 100 -113 100
-28 0 -6 -32 93 -130 58 -58 105 -112 105 -120 0 -24 -38 -60 -62 -60 -13 0
-61 39 -130 107 -84 83 -111 104 -120 95 -9 -9 12 -36 95 -120 68 -69 107
-117 107 -130 0 -26 -37 -62 -63 -62 -10 0 -67 48 -128 107 -85 83 -112 104
-121 95 -10 -10 12 -36 95 -120 121 -122 131 -148 70 -181 -16 -8 -29 -9 -40
-2 -34 18 -591 586 -607 618 -47 94 -40 204 17 290 79 118 225 160 355 103z"/>
<path d="M1330 425 c0 -8 5 -15 10 -15 6 0 10 7 10 15 0 8 -4 15 -10 15 -5 0
-10 -7 -10 -15z"/>
<path d="M1331 387 c-14 -17 3 -41 23 -34 9 4 16 13 16 21 0 19 -26 28 -39 13z"/>
<path d="M1200 320 c-25 -25 -26 -62 -2 -83 39 -35 102 -9 102 41 0 28 -34 62
-60 62 -11 0 -29 -9 -40 -20z m70 -14 c6 -8 10 -25 8 -38 -2 -19 -9 -23 -38
-23 -29 0 -36 4 -38 23 -6 44 41 70 68 38z"/>
</g>
</svg>
