<?xml version="1.0" standalone="no"?>
<!DOCTYPE svg PUBLIC "-//W3C//DTD SVG 20010904//EN"
 "http://www.w3.org/TR/2001/REC-SVG-20010904/DTD/svg10.dtd">
<svg version="1.0" xmlns="http://www.w3.org/2000/svg"
 width="484.000000pt" height="140.000000pt" viewBox="0 0 484.000000 140.000000"
 preserveAspectRatio="xMidYMid meet">

<g transform="translate(0.000000,140.000000) scale(0.100000,-0.100000)"
fill="#000000" stroke="none">
<path d="M713 950 c-93 -19 -172 -80 -214 -166 -34 -69 -34 -199 -1 -262 60
-113 147 -167 272 -166 89 0 147 23 209 85 117 118 122 291 10 413 -73 80
-176 116 -276 96z m149 -20 c20 -6 47 -19 60 -30 19 -17 13 -15 -35 6 -50 22
-69 26 -130 22 -112 -6 -188 -54 -239 -151 -33 -62 -32 -184 2 -250 22 -45 67
-93 116 -125 10 -7 6 -6 -11 2 -103 49 -168 203 -136 322 23 86 100 172 178
200 45 16 144 18 195 4z m23 -34 c203 -96 203 -379 0 -481 -113 -56 -232 -32
-316 64 -90 101 -85 264 9 365 71 75 208 99 307 52z m132 -91 c15 -30 15 -30
-16 5 -17 19 -36 44 -42 55 -9 16 -6 15 16 -5 15 -14 34 -38 42 -55z m42 -120
c-1 -22 -4 -15 -14 25 -17 68 -17 73 0 35 8 -16 14 -43 14 -60z m-9 -105 c-16
-59 -20 -46 -6 20 6 30 12 47 14 38 2 -9 -2 -35 -8 -58z m-34 -77 c-8 -16 -29
-41 -46 -58 -28 -25 -26 -21 11 27 24 32 45 58 47 58 1 0 -4 -12 -12 -27z
m-86 -88 c0 -8 -82 -45 -100 -44 -8 0 10 10 40 23 30 13 56 24 58 25 1 0 2 -1
2 -4z m-213 -41 c-3 -3 -12 -4 -19 -1 -8 3 -5 6 6 6 11 1 17 -2 13 -5z m71
-11 c-10 -2 -26 -2 -35 0 -10 3 -2 5 17 5 19 0 27 -2 18 -5z"/>
<path d="M763 794 c-8 -21 13 -42 28 -27 13 13 5 43 -11 43 -6 0 -13 -7 -17
-16z"/>
<path d="M909 805 c-3 -2 -16 -6 -30 -8 -23 -4 -34 -26 -14 -28 6 -1 20 -5 33
-10 20 -8 22 -5 22 21 0 30 -2 34 -11 25z"/>
<path d="M741 710 c1 -32 2 -33 9 -10 6 19 8 11 9 -32 1 -45 -2 -58 -14 -58
-8 0 -19 -9 -25 -20 -6 -11 -21 -20 -33 -20 -15 0 -31 -14 -49 -43 -27 -42
-22 -61 9 -35 12 9 15 9 9 1 -6 -10 22 -13 128 -13 74 0 137 4 140 8 6 9 -32
72 -44 72 -4 0 -11 11 -14 25 -5 20 -13 25 -36 25 l-30 0 0 64 0 65 33 4 c17
2 4 4 -30 3 l-63 -1 1 -35z m49 -10 c0 -5 -4 -10 -10 -10 -5 0 -10 5 -10 10 0
6 5 10 10 10 6 0 10 -4 10 -10z m0 -65 c0 -14 -4 -25 -10 -25 -5 0 -10 11 -10
25 0 14 5 25 10 25 6 0 10 -11 10 -25z m-43 -71 c-3 -3 -12 -4 -19 -1 -8 3 -5
6 6 6 11 1 17 -2 13 -5z m57 -45 c-3 -5 -10 -7 -15 -3 -5 3 -7 10 -3 15 3 5
10 7 15 3 5 -3 7 -10 3 -15z m-44 1 c0 -5 -4 -10 -10 -10 -5 0 -10 5 -10 10 0
6 5 10 10 10 6 0 10 -4 10 -10z m90 0 c0 -5 -4 -10 -10 -10 -5 0 -10 5 -10 10
0 6 5 10 10 10 6 0 10 -4 10 -10z"/>
<path d="M636 704 c-18 -18 -21 -40 -6 -49 6 -4 8 -11 5 -16 -8 -12 1 -11 47
1 43 12 55 36 32 61 -21 23 -57 24 -78 3z m47 -31 c-7 -2 -21 -2 -30 0 -10 3
-4 5 12 5 17 0 24 -2 18 -5z"/>
<path d="M3377 865 c-95 -35 -149 -108 -150 -204 -1 -124 85 -201 224 -201 37
0 79 4 93 10 25 9 26 13 26 89 l0 80 -46 -24 c-57 -30 -70 -31 -84 -6 -17 33
-11 69 18 102 22 24 36 31 65 31 l37 0 0 63 c0 48 -4 64 -16 69 -28 11 -128 5
-167 -9z"/>
<path d="M1474 860 c-15 -6 -47 -59 -99 -162 -43 -84 -89 -172 -102 -195 l-25
-43 90 0 c81 0 90 2 95 20 8 29 99 29 120 0 13 -19 23 -20 111 -18 l97 3 -105
189 c-58 104 -109 193 -113 197 -15 13 -48 18 -69 9z m39 -234 c8 -25 13 -47
9 -50 -7 -8 -57 -8 -65 0 -7 7 25 94 34 94 4 0 14 -20 22 -44z"/>
<path d="M1898 863 l-38 -4 0 -201 0 -200 134 4 c131 3 135 4 178 33 59 42 88
96 88 165 0 89 -51 172 -123 199 -27 10 -158 12 -239 4z m182 -123 c32 -32 26
-77 -16 -116 -19 -19 -40 -34 -45 -34 -5 0 -9 34 -9 75 0 60 3 76 18 84 24 15
29 14 52 -9z"/>
<path d="M2893 863 l-63 -4 0 -200 0 -200 148 3 147 3 3 58 3 57 -76 0 c-68 0
-75 2 -75 20 0 18 7 20 71 20 l70 0 -3 48 -3 47 -67 3 c-50 2 -68 7 -68 17 0
10 18 15 68 17 l67 3 0 55 0 55 -80 1 c-44 0 -108 -1 -142 -3z"/>
<path d="M3680 670 l0 -200 80 0 80 0 0 70 c0 67 1 70 24 70 13 0 31 3 40 6
14 5 16 -5 16 -70 l0 -76 80 0 80 0 0 200 0 200 -80 0 -80 0 0 -70 0 -70 -40
0 -40 0 0 70 0 70 -80 0 -80 0 0 -200z"/>
<path d="M2350 795 l0 -65 55 0 55 0 0 -135 0 -135 80 0 80 0 0 135 0 135 55
0 55 0 0 65 0 65 -190 0 -190 0 0 -65z"/>
</g>
</svg>
