<?xml version="1.0" standalone="no"?>
<!DOCTYPE svg PUBLIC "-//W3C//DTD SVG 20010904//EN"
 "http://www.w3.org/TR/2001/REC-SVG-20010904/DTD/svg10.dtd">
<svg version="1.0" xmlns="http://www.w3.org/2000/svg"
 width="150.000000pt" height="150.000000pt" viewBox="0 0 150.000000 150.000000"
 preserveAspectRatio="xMidYMid meet">

<g transform="translate(0.000000,150.000000) scale(0.100000,-0.100000)"
fill="#000000" stroke="none">
<path d="M658 1240 c-70 -18 -153 -67 -206 -124 -95 -101 -134 -224 -113 -364
20 -138 73 -214 187 -270 l55 -27 -3 -70 c-3 -68 -4 -70 -30 -73 -40 -5 -39
-40 2 -48 31 -7 38 -22 19 -41 -16 -16 -4 -43 19 -43 22 0 82 -60 82 -81 0
-39 67 -78 110 -64 27 9 60 44 60 65 0 21 61 80 83 80 22 0 34 27 18 43 -19
19 -12 34 19 41 41 8 42 43 3 48 -28 3 -28 4 -28 78 l0 75 63 31 c35 18 74 42
88 55 37 35 72 116 85 197 31 192 -68 381 -242 462 -57 26 -86 33 -152 36 -45
2 -99 -1 -119 -6z m257 -58 c166 -78 254 -247 226 -432 -19 -120 -69 -189
-166 -230 -62 -26 -75 -43 -75 -97 0 -39 -2 -43 -24 -43 -13 0 -27 7 -30 16
-3 9 -6 71 -6 140 l0 124 37 15 c53 23 83 53 83 87 0 37 -37 57 -75 40 -28
-13 -65 -67 -65 -94 0 -15 -10 -18 -63 -18 l-63 0 -14 42 c-20 55 -60 85 -97
72 -30 -10 -38 -31 -29 -71 5 -17 22 -31 62 -50 l55 -25 -3 -136 -3 -137 -27
-3 c-26 -3 -27 -1 -30 45 -3 48 -3 48 -63 80 -115 60 -164 134 -180 270 -34
303 276 532 550 405z m-283 -419 c24 -28 32 -63 14 -63 -25 0 -70 45 -63 63 8
22 30 22 49 0z m296 -5 c2 -11 -9 -25 -30 -38 -42 -26 -51 -25 -42 3 15 51 64
75 72 35z m-118 -228 c0 -72 0 -133 0 -137 0 -5 -25 -9 -55 -11 l-55 -3 0 141
0 140 55 0 55 0 0 -130z m0 -429 c0 -13 -36 -41 -53 -41 -19 0 -57 26 -57 39
0 3 25 6 55 6 30 0 55 -2 55 -4z"/>
<path d="M1210 1100 c-24 -24 -25 -48 -4 -78 31 -45 104 -19 104 37 0 55 -61
80 -100 41z m74 -16 c19 -18 19 -20 6 -45 -19 -34 -80 -19 -80 21 0 38 46 53
74 24z"/>
</g>
</svg>
